<svg width="30" height="34" viewBox="0 0 30 34" fill="none" xmlns="http://www.w3.org/2000/svg">
<g clip-path="url(#clip0_1142_156)">
<path d="M15 17C17.2733 17 19.4535 16.1045 21.0609 14.5104C22.6684 12.9163 23.5714 10.7543 23.5714 8.5C23.5714 6.24566 22.6684 4.08365 21.0609 2.48959C19.4535 0.895533 17.2733 0 15 0C12.7267 0 10.5465 0.895533 8.93908 2.48959C7.33163 4.08365 6.42857 6.24566 6.42857 8.5C6.42857 10.7543 7.33163 12.9163 8.93908 14.5104C10.5465 16.1045 12.7267 17 15 17ZM11.9397 20.1875C5.34375 20.1875 0 25.4867 0 32.0277C0 33.1168 0.890625 34 1.98884 34H28.0112C29.1094 34 30 33.1168 30 32.0277C30 25.4867 24.6562 20.1875 18.0603 20.1875H11.9397Z" fill="white"/>
</g>
<defs>
<clipPath id="clip0_1142_156">
<rect width="30" height="34" fill="white"/>
</clipPath>
</defs>
</svg>
