<svg width="13" height="14" viewBox="0 0 13 14" fill="none" xmlns="http://www.w3.org/2000/svg">
<path d="M6.5 6.99338C7.40931 6.99338 8.28138 6.6299 8.92437 5.9829C9.56735 5.3359 9.92857 4.45838 9.92857 3.54338C9.92857 2.62839 9.56735 1.75087 8.92437 1.10387C8.28138 0.456865 7.40931 0.0933838 6.5 0.0933838C5.59069 0.0933838 4.71862 0.456865 4.07563 1.10387C3.43265 1.75087 3.07143 2.62839 3.07143 3.54338C3.07143 4.45838 3.43265 5.3359 4.07563 5.9829C4.71862 6.6299 5.59069 6.99338 6.5 6.99338ZM5.27589 8.28713C2.6375 8.28713 0.5 10.438 0.5 13.0929C0.5 13.5349 0.85625 13.8934 1.29554 13.8934H11.7045C12.1438 13.8934 12.5 13.5349 12.5 13.0929C12.5 10.438 10.3625 8.28713 7.72411 8.28713H5.27589Z" fill="#1D1D1D"/>
</svg>
