<svg width="11" height="14" viewBox="0 0 11 14" fill="none" xmlns="http://www.w3.org/2000/svg">
<path d="M5.5 0.5C2.73875 0.5 0.5 2.68278 0.5 5.375C0.5 6.43511 0.856458 7.40788 1.44896 8.20453C1.45958 8.22363 1.46125 8.24495 1.47333 8.26323L4.80667 13.1382C4.96125 13.3643 5.22167 13.5 5.5 13.5C5.77833 13.5 6.03875 13.3643 6.19333 13.1382L9.52667 8.26323C9.53896 8.24495 9.54042 8.22363 9.55104 8.20453C10.1435 7.40788 10.5 6.43511 10.5 5.375C10.5 2.68278 8.26125 0.5 5.5 0.5ZM5.5 7C4.57958 7 3.83333 6.27241 3.83333 5.375C3.83333 4.47759 4.57958 3.75 5.5 3.75C6.42042 3.75 7.16667 4.47759 7.16667 5.375C7.16667 6.27241 6.42042 7 5.5 7Z" fill="#1D1D1D"/>
</svg>
