<svg width="19" height="16" viewBox="0 0 19 16" fill="none" xmlns="http://www.w3.org/2000/svg">
<path fill-rule="evenodd" clip-rule="evenodd" d="M12.35 6.58791C13.0661 6.58779 13.7631 6.3587 14.3373 5.93469C14.9115 5.51067 15.3324 4.91438 15.5372 4.23442H18.05C18.302 4.23442 18.5436 4.13523 18.7218 3.95869C18.8999 3.78214 19 3.54269 19 3.29302C19 3.04335 18.8999 2.8039 18.7218 2.62735C18.5436 2.45081 18.302 2.35162 18.05 2.35162H15.5372C15.332 1.67201 14.911 1.07613 14.3368 0.652472C13.7627 0.22882 13.0659 0 12.35 0C11.6341 0 10.9373 0.22882 10.3632 0.652472C9.78896 1.07613 9.36798 1.67201 9.16275 2.35162H0.95C0.698044 2.35162 0.456408 2.45081 0.278249 2.62735C0.100089 2.8039 0 3.04335 0 3.29302C0 3.54269 0.100089 3.78214 0.278249 3.95869C0.456408 4.13523 0.698044 4.23442 0.95 4.23442H9.16275C9.36765 4.91438 9.78848 5.51067 10.3627 5.93469C10.9369 6.3587 11.6339 6.58779 12.35 6.58791ZM0.95 11.7656C0.698044 11.7656 0.456408 11.8648 0.278249 12.0413C0.100089 12.2179 0 12.4573 0 12.707C0 12.9567 0.100089 13.1961 0.278249 13.3726C0.456408 13.5492 0.698044 13.6484 0.95 13.6484H2.98775C3.19298 14.328 3.61396 14.9239 4.18815 15.3475C4.76235 15.7712 5.45913 16 6.175 16C6.89087 16 7.58765 15.7712 8.16185 15.3475C8.73604 14.9239 9.15702 14.328 9.36225 13.6484H18.05C18.302 13.6484 18.5436 13.5492 18.7218 13.3726C18.8999 13.1961 19 12.9567 19 12.707C19 12.4573 18.8999 12.2179 18.7218 12.0413C18.5436 11.8648 18.302 11.7656 18.05 11.7656H9.36225C9.15702 11.086 8.73604 10.4901 8.16185 10.0664C7.58765 9.64278 6.89087 9.41396 6.175 9.41396C5.45913 9.41396 4.76235 9.64278 4.18815 10.0664C3.61396 10.4901 3.19298 11.086 2.98775 11.7656H0.95Z" fill="#1A1A1A"/>
</svg>
