<svg width="15" height="14" viewBox="0 0 15 14" fill="none" xmlns="http://www.w3.org/2000/svg">
<path d="M14.9884 5.60601C15.0634 5.23917 14.7636 4.79896 14.3889 4.79896L10.1172 4.21202L8.1687 0.396887C8.09376 0.250151 8.01882 0.176783 7.86893 0.103415C7.49422 -0.116689 7.04457 0.0300471 6.81974 0.396887L4.94619 4.21202L0.67448 4.79896C0.449653 4.79896 0.299769 4.87233 0.224827 5.01907C-0.0749422 5.31254 -0.0749422 5.75275 0.224827 6.04622L3.29746 8.98093L2.54803 13.1629C2.54803 13.3096 2.54803 13.4564 2.62298 13.6031C2.8478 13.97 3.29746 14.1167 3.67217 13.8966L7.49422 11.9157L11.3163 13.8966C11.3912 13.97 11.5411 13.97 11.691 13.97H11.8409C12.2156 13.8966 12.5153 13.5297 12.4404 13.0895L11.691 8.90757L14.7636 5.97285C14.9135 5.89948 14.9884 5.75275 14.9884 5.60601Z" fill="#FFAF45"/>
</svg>
