<svg width="46" height="49" viewBox="0 0 46 49" fill="none" xmlns="http://www.w3.org/2000/svg">
<path fill-rule="evenodd" clip-rule="evenodd" d="M0.872656 37.0957C0.207816 34.1455 -0.120156 30.4836 0.0401829 25.9462C7.15239 27.5504 11.7486 29.8125 14.6522 32.2887L15.6309 23.1138L11.029 19.4157V15.7177H14.7105V6.47254C14.7105 4.60462 15.6309 0.000953846 22.9938 0.000953846C30.3568 -0.0766072 31.2772 4.59659 31.2772 6.47254V15.7177H34.9587V19.4157L30.3568 23.1138L31.3743 32.6527C34.0169 29.8463 38.4277 27.0887 45.5332 24.7731C46.1251 29.385 46.1224 33.1301 45.7033 36.1685C41.0525 43.8415 32.6599 48.972 23.0728 49H22.9155C13.7197 48.9733 5.62271 44.2521 0.872656 37.0957ZM22.9938 4.62352C25.7488 4.62352 26.6753 6.77035 26.6753 8.32157V15.7177H19.3123V8.32157C19.3123 6.69278 20.0845 4.62352 22.9938 4.62352Z" fill="white"/>
</svg>
