<svg width="21" height="24" viewBox="0 0 21 24" fill="none" xmlns="http://www.w3.org/2000/svg">
<path d="M10.2021 12C11.7177 12 13.1711 11.3942 14.2428 10.3159C15.3144 9.23753 15.9164 7.77499 15.9164 6.25C15.9164 4.72501 15.3144 3.26247 14.2428 2.18414C13.1711 1.1058 11.7177 0.5 10.2021 0.5C8.68663 0.5 7.23317 1.1058 6.16154 2.18414C5.0899 3.26247 4.48786 4.72501 4.48786 6.25C4.48786 7.77499 5.0899 9.23753 6.16154 10.3159C7.23317 11.3942 8.68663 12 10.2021 12ZM8.16197 14.1562C3.76465 14.1562 0.202148 17.741 0.202148 22.1658C0.202148 22.9025 0.795898 23.5 1.52804 23.5H18.8763C19.6084 23.5 20.2021 22.9025 20.2021 22.1658C20.2021 17.741 16.6396 14.1562 12.2423 14.1562H8.16197Z" fill="#082C4C"/>
</svg>
